<svg width="1167.4" height="639.44" version="1.1" viewBox="0 0 1167.4 639.44" xmlns="http://www.w3.org/2000/svg">
 <g transform="translate(-3.854 -743.94)" data-name="Сгруппировать 13">
  <g transform="translate(0 27)" data-name="Сгруппировать 6">
   <path transform="translate(151.36 799.26)" d="m352.72 4.3c371.58-77.46 667.21 47.484 667.21 225.58s-415.69 360.79-706.66 321.95-403.96-202.1-403.96-380.2 71.833-89.872 443.41-167.34z" fill="#edebf9" data-name="Контур 7"/>
   <path transform="translate(176.44 812.28)" d="m319.28 2.537c343.55-71.62 616.89 43.9 616.89 208.57s-384.34 333.58-653.37 297.67-373.49-186.86-373.49-351.53 66.416-83.092 409.97-154.71z" fill="#f5f4f6" data-name="Контур 6"/>
   <circle transform="matrix(.799 -.602 .602 .799 3.854 1274.7)" cx="51.124" cy="51.124" r="51.124" fill="#e5d3f9" data-name="Эллипс 23"/>
   <g fill="#edebf9">
    <circle transform="matrix(.799 -.602 .602 .799 46.759 1184.7)" cx="14.278" cy="14.278" r="14.278" data-name="Эллипс 24"/>
    <circle transform="matrix(.799 -.602 .602 .799 160.9 1313.2)" cx="21.186" cy="21.186" r="21.186" data-name="Эллипс 25"/>
    <ellipse transform="translate(1135.4 1191.2)" cx="17.962" cy="18.423" rx="17.962" ry="18.423" data-name="Эллипс 26"/>
   </g>
   <ellipse transform="translate(1051.5 1240)" cx="33.622" cy="34.083" rx="33.622" ry="34.083" fill="#e5d3f9" data-name="Эллипс 27"/>
   <circle transform="translate(982.45 1292.5)" cx="12.436" cy="12.436" r="12.436" fill="#e5d3f9" data-name="Эллипс 28"/>
   <ellipse transform="matrix(.914 .407 -.407 .914 317.42 716.94)" cx="17.962" cy="18.423" rx="17.962" ry="18.423" fill="#edebf9" data-name="Эллипс 29"/>
   <ellipse transform="matrix(.914 .407 -.407 .914 220.99 727.44)" cx="33.622" cy="34.083" rx="33.622" ry="34.083" fill="#e5d3f9" data-name="Эллипс 30"/>
  </g>
 </g>
</svg>
