<svg width="705.79" height="488.07" version="1.1" viewBox="0 0 705.79 488.07" xmlns="http://www.w3.org/2000/svg" xmlns:xlink="http://www.w3.org/1999/xlink">
 <defs>
  <clipPath id="a">
   <path transform="translate(45.089 15.301)" d="m159.21-5.427c230.34-50.808 374.26 107.66 175.2 175.2s-161.91 169.34-258.67 169.34-117.78-145.27-119.24-169.34-27.628-124.4 202.71-175.2z" fill="#fff" stroke="#707070"/>
  </clipPath>
  <pattern id="b" width="1" height="1" patternTransform="matrix(-1 0 0 1 1281.6 0)" viewBox="0 0 640.799 360.449">
   <image width="640.8" height="360.45" preserveAspectRatio="none" xlink:href="img\main screen\Image.svg"/>
  </pattern>
 </defs>
 <g transform="translate(-473.69 -80.076)">
  <path transform="translate(661.48 162.2)" d="m197.74-3.565c273.78-60.389 444.84 127.96 208.24 208.24s-192.45 201.27-307.46 201.27-140-172.67-141.72-201.27-32.839-147.85 240.94-208.24z" fill="#c5bdeb" opacity=".31"/>
  <path transform="translate(661.48 162.2)" d="m178.71-4.485c252.33-55.657 409.99 117.93 191.93 191.93s-177.37 185.5-283.37 185.5-129.03-159.14-130.62-185.5-30.266-136.27 222.06-191.93z" fill="#d19ef8" opacity=".31"/>
  <g transform="translate(616.4 146.9)" clip-path="url(#a)">
   <rect transform="translate(-116.1 -.451)" width="640.8" height="360.45" fill="url(#b)" opacity=".9"/>
  </g>
  <circle transform="translate(618.31 110.4)" cx="28.095" cy="28.095" r="28.095" fill="#e5d3f9"/>
  <ellipse transform="translate(738.06 112.25)" cx="14.278" cy="13.817" rx="14.278" ry="13.817" fill="#edebf9"/>
  <circle transform="translate(473.69 331.48)" cx="51.124" cy="51.124" r="51.124" fill="#efe7f9"/>
  <circle transform="translate(562.12 285.42)" cx="14.278" cy="14.278" r="14.278" fill="#edebf9"/>
  <circle transform="translate(575.94 456.76)" cx="21.186" cy="21.186" r="21.186" fill="#edebf9"/>
  <ellipse transform="translate(1079.8 382.14)" cx="17.962" cy="18.423" rx="17.962" ry="18.423" fill="#e5d3f9"/>
  <ellipse transform="translate(995.98 430.96)" cx="33.622" cy="34.083" rx="33.622" ry="34.083" fill="#edebf9"/>
  <circle transform="translate(926.89 483.47)" cx="12.436" cy="12.436" r="12.436" fill="#e5d3f9"/>
  <ellipse transform="translate(1016.4 80.076) rotate(17)" cx="21.331" cy="21.331" rx="21.331" ry="21.331" fill="#e5d3f9"/>
  <ellipse transform="translate(1103 107.87) rotate(17)" cx="10.665" cy="10.665" rx="10.665" ry="10.665" fill="#edebf9"/>
 </g>
</svg>
